{"title":"American Horror Story S06E04 1080p WEB-DL HEVC DD5.1 x265","uid":15978387,"size":705727691,"categoryP":"video","categoryS":"hd___tv_shows","magnet":"?xt=urn:btih:e77ae8cb80a381ce83f3977f36581024dde29329&amp;dn=American+Horror+Story+S06E04+1080p+WEB-DL+HEVC+DD5.1+x265&amp;tr=udp%3A%2F%2Ftracker.leechers-paradise.org%3A6969&amp;tr=udp%3A%2F%2Fzer0day.ch%3A1337&amp;tr=udp%3A%2F%2Fopen.demonii.com%3A1337&amp;tr=udp%3A%2F%2Ftracker.coppersurfer.tk%3A6969&amp;tr=udp%3A%2F%2Fexodus.desync.com%3A6969","seeders":7,"leechers":2,"uploader":"nayhtut","files":1,"time":1475868830,"description":"Source:  American Horror Story S06E04 1080p WEB-DL DD5.1 H.264 (1.61 GB)\r\n\r\n\r\nComplete name: American.Horror.Story.S06E04.1080p.WEB-DL.HEVC.DD5.1.x265.mkv\r\nFormat                                   : Matroska\r\nFormat version                           : Version 4 / Version 2\r\nFile size                                : 673 MiB\r\nDuration                                 : 41mn 7s\r\nOverall bit rate                         : 2 288 Kbps\r\nEncoded date                             : UTC 2016-10-07 16:32:59\r\nWriting library                          : libebml v1.3.4 + libmatroska v1.4.5\r\nDURATION                                 : 00:40:59.455000000\r\n\r\nVideo\r\n\r\nID                                       : 1\r\nFormat                                   : V_MPEGH/ISO/HEVC\r\nCodec ID                                 : V_MPEGH/ISO/HEVC\r\nDuration                                 : 41mn 7s\r\nBit rate                                 : 1 858 Kbps\r\nWidth                                    : 1 920 pixels\r\nHeight                                   : 1 080 pixels\r\nDisplay aspect ratio                     : 16:9\r\nFrame rate                               : 23.976 fps\r\nBits/(Pixel*Frame)                       : 0.037\r\nStream size                              : 547 MiB (81%)\r\nTitle: American.Horror.Story.S06E04.1080p.WEB-DL.HEVC.DD5.1.x265\r\nLanguage                                 : English\r\nDefault                                  : Yes\r\nForced                                   : No\r\nDURATION                                 : 00:41:07.841000000\r\n\r\nAudio\r\n\r\nID                                       : 2\r\nFormat                                   : AC-3\r\nFormat/Info                              : Audio Coding 3\r\nMode extension                           : CM (complete main)\r\nFormat settings, Endianness              : Big\r\nDuration                                 : 41mn 7s\r\nBit rate mode                            : Constant\r\nBit rate                                 : 384 Kbps\r\nChannel(s)                               : 6 channels\r\nChannel positions                        : Front: L C R, Side: L R, LFE\r\nSampling rate                            : 48.0 KHz\r\nBit depth                                : 16 bits\r\nCompression mode                         : Lossy\r\nStream size                              : 113 MiB (17%)\r\nTitle                                    : AC-3 5.1\r\nLanguage                                 : English\r\nDefault                                  : Yes\r\nForced                                   : No\r\n\r\nText\r\n\r\nID                                       : 3\r\nFormat                                   : UTF-8\r\nCodec ID                                 : S_TEXT/UTF8\r\nTitle                                    : English\r\nLanguage                                 : English\r\nDefault                                  : Yes","torrent":{"xt":"urn:btih:e77ae8cb80a381ce83f3977f36581024dde29329","amp;dn":"American+Horror+Story+S06E04+1080p+WEB-DL+HEVC+DD5.1+x265","amp;tr":["udp%3A%2F%2Ftracker.leechers-paradise.org%3A6969","udp%3A%2F%2Fzer0day.ch%3A1337","udp%3A%2F%2Fopen.demonii.com%3A1337","udp%3A%2F%2Ftracker.coppersurfer.tk%3A6969","udp%3A%2F%2Fexodus.desync.com%3A6969"],"infoHash":"e77ae8cb80a381ce83f3977f36581024dde29329","infoHashBuffer":{"type":"Buffer","data":[231,122,232,203,128,163,129,206,131,243,151,127,54,88,16,36,221,226,147,41]},"announce":[],"urlList":[]}}